{
  "accessors": [
    {
      "bufferView": 2,
      "componentType": 5126,
      "count": 65532,
      "max": [
        447.9620056152344,
        624.0577392578125,
        614.82421875
      ],
      "min": [
        -420.4647521972656,
        -25.563871383666992,
        -616.7333374023438
      ],
      "type": "VEC3"
    },
    {
      "bufferView": 2,
      "byteOffset": 786384,
      "componentType": 5126,
      "count": 65532,
      "max": [
        0.9999994039535522,
        0.9999985694885254,
        0.9999979734420776
      ],
      "min": [
        -0.9999999403953552,
        -0.9999964237213135,
        -0.9999983906745911
      ],
      "type": "VEC3"
    },
    {
      "bufferView": 3,
      "componentType": 5126,
      "count": 65532,
      "max": [
        1.0,
        0.9999998807907104,
        1.0,
        1.0
      ],
      "min": [
        -1.0,
        -1.0,
        -1.0,
        -1.0
      ],
      "type": "VEC4"
    },
    {
      "bufferView": 1,
      "componentType": 5126,
      "count": 65532,
      "max": [
        0.9999676942825317,
        0.9999113082885742
      ],
      "min": [
        3.310207574713786e-08,
        9.436313774813243e-08
      ],
      "type": "VEC2"
    },
    {
      "bufferView": 1,
      "byteOffset": 524256,
      "componentType": 5126,
      "count": 65532,
      "max": [
        0.9999676942825317,
        0.9999113082885742
      ],
      "min": [
        3.310207574713786e-08,
        9.436313774813243e-08
      ],
      "type": "VEC2"
    },
    {
      "bufferView": 1,
      "byteOffset": 1048512,
      "componentType": 5126,
      "count": 65532,
      "max": [
        0.9999676942825317,
        0.9999113082885742
      ],
      "min": [
        3.310207574713786e-08,
        9.436313774813243e-08
      ],
      "type": "VEC2"
    },
    {
      "bufferView": 0,
      "componentType": 5125,
      "count": 237768,
      "type": "SCALAR"
    },
    {
      "bufferView": 2,
      "byteOffset": 1572768,
      "componentType": 5126,
      "count": 65532,
      "max": [
        75.26724243164063,
        624.2960205078125,
        -286.3718566894531
      ],
      "min": [
        8.887373924255371,
        20.210783004760742,
        -371.6275939941406
      ],
      "type": "VEC3"
    },
    {
      "bufferView": 2,
      "byteOffset": 2359152,
      "componentType": 5126,
      "count": 65532,
      "max": [
        0.9999948143959045,
        0.9999950528144836,
        0.9999958872795105
      ],
      "min": [
        -0.9999927282333374,
        -0.9999973773956299,
        -0.9999949336051941
      ],
      "type": "VEC3"
    },
    {
      "bufferView": 3,
      "byteOffset": 1048512,
      "componentType": 5126,
      "count": 65532,
      "max": [
        0.9999914169311523,
        0.9999996423721313,
        0.999997079372406,
        1.0
      ],
      "min": [
        -0.9999958276748657,
        -0.9999996423721313,
        -0.999999463558197,
        1.0
      ],
      "type": "VEC4"
    },
    {
      "bufferView": 1,
      "byteOffset": 1572768,
      "componentType": 5126,
      "count": 65532,
      "max": [
        0.999998927116394,
        1.0
      ],
      "min": [
        2.9424066738670263e-08,
        0.0
      ],
      "type": "VEC2"
    },
    {
      "bufferView": 1,
      "byteOffset": 2097024,
      "componentType": 5126,
      "count": 65532,
      "max": [
        0.999998927116394,
        1.0
      ],
      "min": [
        2.9424066738670263e-08,
        0.0
      ],
      "type": "VEC2"
    },
    {
      "bufferView": 1,
      "byteOffset": 2621280,
      "componentType": 5126,
      "count": 65532,
      "max": [
        0.999998927116394,
        1.0
      ],
      "min": [
        2.9424066738670263e-08,
        0.0
      ],
      "type": "VEC2"
    },
    {
      "bufferView": 0,
      "byteOffset": 951072,
      "componentType": 5125,
      "count": 269040,
      "type": "SCALAR"
    },
    {
      "bufferView": 2,
      "byteOffset": 3145536,
      "componentType": 5126,
      "count": 65532,
      "max": [
        43.06044387817383,
        619.50634765625,
        -286.80322265625
      ],
      "min": [
        -63.1544303894043,
        24.182950973510742,
        -398.28289794921875
      ],
      "type": "VEC3"
    },
    {
      "bufferView": 2,
      "byteOffset": 3931920,
      "componentType": 5126,
      "count": 65532,
      "max": [
        0.9999979138374329,
        0.9999992251396179,
        0.9999975562095642
      ],
      "min": [
        -0.9999976754188538,
        -0.9999960660934448,
        -1.0
      ],
      "type": "VEC3"
    },
    {
      "bufferView": 3,
      "byteOffset": 2097024,
      "componentType": 5126,
      "count": 65532,
      "max": [
        0.9999998807907104,
        0.9999997019767761,
        0.9999977946281433,
        1.0
      ],
      "min": [
        -0.9999997019767761,
        -0.9999996423721313,
        -0.9999982118606567,
        1.0
      ],
      "type": "VEC4"
    },
    {
      "bufferView": 1,
      "byteOffset": 3145536,
      "componentType": 5126,
      "count": 65532,
      "max": [
        0.9999907612800598,
        0.9981918334960938
      ],
      "min": [
        3.619627264583869e-08,
        1.2233985557941196e-07
      ],
      "type": "VEC2"
    },
    {
      "bufferView": 1,
      "byteOffset": 3669792,
      "componentType": 5126,
      "count": 65532,
      "max": [
        0.9999907612800598,
        0.9981918334960938
      ],
      "min": [
        3.619627264583869e-08,
        1.2233985557941196e-07
      ],
      "type": "VEC2"
    },
    {
      "bufferView": 1,
      "byteOffset": 4194048,
      "componentType": 5126,
      "count": 65532,
      "max": [
        0.9999907612800598,
        0.9981918334960938
      ],
      "min": [
        3.619627264583869e-08,
        1.2233985557941196e-07
      ],
      "type": "VEC2"
    },
    {
      "bufferView": 0,
      "byteOffset": 2027232,
      "componentType": 5125,
      "count": 272754,
      "type": "SCALAR"
    },
    {
      "bufferView": 2,
      "byteOffset": 4718304,
      "componentType": 5126,
      "count": 65532,
      "max": [
        440.8042297363281,
        621.7108764648438,
        662.0409545898438
      ],
      "min": [
        -440.60455322265625,
        -122.24212646484375,
        -612.2697143554688
      ],
      "type": "VEC3"
    },
    {
      "bufferView": 2,
      "byteOffset": 5504688,
      "componentType": 5126,
      "count": 65532,
      "max": [
        0.9999976754188538,
        1.0,
        0.9999966621398926
      ],
      "min": [
        -0.9999788999557495,
        -0.999998927116394,
        -0.9999932050704956
      ],
      "type": "VEC3"
    },
    {
      "bufferView": 3,
      "byteOffset": 3145536,
      "componentType": 5126,
      "count": 65532,
      "max": [
        0.9999943971633911,
        1.0,
        1.0,
        1.0
      ],
      "min": [
        -1.0,
        -0.9999997615814209,
        -0.9999983310699463,
        -1.0
      ],
      "type": "VEC4"
    },
    {
      "bufferView": 1,
      "byteOffset": 4718304,
      "componentType": 5126,
      "count": 65532,
      "max": [
        1.0,
        0.9999920725822449
      ],
      "min": [
        0.0,
        1.8418004898990148e-08
      ],
      "type": "VEC2"
    },
    {
      "bufferView": 1,
      "byteOffset": 5242560,
      "componentType": 5126,
      "count": 65532,
      "max": [
        1.0,
        0.9999920725822449
      ],
      "min": [
        0.0,
        1.8418004898990148e-08
      ],
      "type": "VEC2"
    },
    {
      "bufferView": 1,
      "byteOffset": 5766816,
      "componentType": 5126,
      "count": 65532,
      "max": [
        1.0,
        0.9999920725822449
      ],
      "min": [
        0.0,
        1.8418004898990148e-08
      ],
      "type": "VEC2"
    },
    {
      "bufferView": 0,
      "byteOffset": 3118248,
      "componentType": 5125,
      "count": 262317,
      "type": "SCALAR"
    },
    {
      "bufferView": 2,
      "byteOffset": 6291072,
      "componentType": 5126,
      "count": 65532,
      "max": [
        -34.3638916015625,
        620.7625122070313,
        -279.3894958496094
      ],
      "min": [
        -74.95515441894531,
        24.52532196044922,
        -398.07537841796875
      ],
      "type": "VEC3"
    },
    {
      "bufferView": 2,
      "byteOffset": 7077456,
      "componentType": 5126,
      "count": 65532,
      "max": [
        0.999999463558197,
        0.9999999403953552,
        0.9999999403953552
      ],
      "min": [
        -0.9999999403953552,
        -0.9999984502792358,
        -0.9999982714653015
      ],
      "type": "VEC3"
    },
    {
      "bufferView": 3,
      "byteOffset": 4194048,
      "componentType": 5126,
      "count": 65532,
      "max": [
        0.9999994039535522,
        0.9999998807907104,
        1.0,
        1.0
      ],
      "min": [
        -0.9999992251396179,
        -0.9999994039535522,
        -0.9999974370002747,
        1.0
      ],
      "type": "VEC4"
    },
    {
      "bufferView": 1,
      "byteOffset": 6291072,
      "componentType": 5126,
      "count": 65532,
      "max": [
        0.9999858140945435,
        0.9999841451644897
      ],
      "min": [
        1.786461112374127e-08,
        1.0013333451297513e-07
      ],
      "type": "VEC2"
    },
    {
      "bufferView": 1,
      "byteOffset": 6815328,
      "componentType": 5126,
      "count": 65532,
      "max": [
        0.9999858140945435,
        0.9999841451644897
      ],
      "min": [
        1.786461112374127e-08,
        1.0013333451297513e-07
      ],
      "type": "VEC2"
    },
    {
      "bufferView": 1,
      "byteOffset": 7339584,
      "componentType": 5126,
      "count": 65532,
      "max": [
        0.9999858140945435,
        0.9999841451644897
      ],
      "min": [
        1.786461112374127e-08,
        1.0013333451297513e-07
      ],
      "type": "VEC2"
    },
    {
      "bufferView": 0,
      "byteOffset": 4167516,
      "componentType": 5125,
      "count": 270801,
      "type": "SCALAR"
    },
    {
      "bufferView": 2,
      "byteOffset": 7863840,
      "componentType": 5126,
      "count": 19250,
      "max": [
        3.476491928100586,
        623.6283569335938,
        -279.9989013671875
      ],
      "min": [
        -70.0994873046875,
        22.074953079223633,
        -312.30682373046875
      ],
      "type": "VEC3"
    },
    {
      "bufferView": 2,
      "byteOffset": 8094840,
      "componentType": 5126,
      "count": 19250,
      "max": [
        0.9999897480010986,
        0.9999982714653015,
        0.9999709129333496
      ],
      "min": [
        -0.9999891519546509,
        -0.9999966621398926,
        -0.9999952912330627
      ],
      "type": "VEC3"
    },
    {
      "bufferView": 3,
      "byteOffset": 5242560,
      "componentType": 5126,
      "count": 19250,
      "max": [
        0.9999997615814209,
        0.9999997019767761,
        0.9999969005584717,
        1.0
      ],
      "min": [
        -0.9999995231628418,
        -1.0,
        -0.999992311000824,
        1.0
      ],
      "type": "VEC4"
    },
    {
      "bufferView": 1,
      "byteOffset": 7863840,
      "componentType": 5126,
      "count": 19250,
      "max": [
        0.9999716877937317,
        0.9981827735900879
      ],
      "min": [
        3.152578642584558e-08,
        0.0031837276183068752
      ],
      "type": "VEC2"
    },
    {
      "bufferView": 1,
      "byteOffset": 8017840,
      "componentType": 5126,
      "count": 19250,
      "max": [
        0.9999716877937317,
        0.9981827735900879
      ],
      "min": [
        3.152578642584558e-08,
        0.0031837276183068752
      ],
      "type": "VEC2"
    },
    {
      "bufferView": 1,
      "byteOffset": 8171840,
      "componentType": 5126,
      "count": 19250,
      "max": [
        0.9999716877937317,
        0.9981827735900879
      ],
      "min": [
        3.152578642584558e-08,
        0.0031837276183068752
      ],
      "type": "VEC2"
    },
    {
      "bufferView": 0,
      "byteOffset": 5250720,
      "componentType": 5125,
      "count": 79542,
      "type": "SCALAR"
    }
  ],
  "asset": {
    "extras": {
      "author": "Nortenko Dmytro (https://sketchfab.com/leondp)",
      "license": "CC-BY-4.0 (http://creativecommons.org/licenses/by/4.0/)",
      "source": "https://sketchfab.com/3d-models/winter-house-95885f09fff24ac98af52b38a5b93c60",
      "title": "Winter house"
    },
    "generator": "Sketchfab-15.42.0",
    "version": "2.0"
  },
  "bufferViews": [
    {
      "buffer": 0,
      "byteLength": 5568888,
      "name": "floatBufferViews",
      "target": 34963
    },
    {
      "buffer": 0,
      "byteLength": 8325840,
      "byteOffset": 5568888,
      "byteStride": 8,
      "name": "floatBufferViews",
      "target": 34962
    },
    {
      "buffer": 0,
      "byteLength": 8325840,
      "byteOffset": 13894728,
      "byteStride": 12,
      "name": "floatBufferViews",
      "target": 34962
    },
    {
      "buffer": 0,
      "byteLength": 5550560,
      "byteOffset": 22220568,
      "byteStride": 16,
      "name": "floatBufferViews",
      "target": 34962
    }
  ],
  "buffers": [
    {
      "byteLength": 27771128,
      "uri": "scene.bin"
    }
  ],
  "extensionsUsed": [
    "KHR_materials_specular"
  ],
  "images": [
    {
      "uri": "textures/MergedBake_Baked_baseColor.png"
    },
    {
      "uri": "textures/MergedBake_Baked_metallicRoughness.png"
    },
    {
      "uri": "textures/MergedBake_Baked_normal.png"
    }
  ],
  "materials": [
    {
      "doubleSided": true,
      "extensions": {
        "KHR_materials_specular": {
          "specularColorFactor": [
            1.0,
            1.0,
            1.0
          ],
          "specularFactor": 0.9432409698772415
        }
      },
      "name": "MergedBake_Baked",
      "normalTexture": {
        "index": 2
      },
      "occlusionTexture": {
        "index": 1
      },
      "pbrMetallicRoughness": {
        "baseColorTexture": {
          "index": 0
        },
        "metallicFactor": 0.0,
        "metallicRoughnessTexture": {
          "index": 1,
          "texCoord": 1
        }
      }
    }
  ],
  "meshes": [
    {
      "name": "Blenderesse_Cottage_Generator_Baked_MergedBake_Baked_0",
      "primitives": [
        {
          "attributes": {
            "NORMAL": 1,
            "POSITION": 0,
            "TANGENT": 2,
            "TEXCOORD_0": 3,
            "TEXCOORD_1": 4,
            "TEXCOORD_2": 5
          },
          "indices": 6,
          "material": 0,
          "mode": 4
        }
      ]
    },
    {
      "name": "Blenderesse_Cottage_Generator_Baked_MergedBake_Baked_0",
      "primitives": [
        {
          "attributes": {
            "NORMAL": 8,
            "POSITION": 7,
            "TANGENT": 9,
            "TEXCOORD_0": 10,
            "TEXCOORD_1": 11,
            "TEXCOORD_2": 12
          },
          "indices": 13,
          "material": 0,
          "mode": 4
        }
      ]
    },
    {
      "name": "Blenderesse_Cottage_Generator_Baked_MergedBake_Baked_0",
      "primitives": [
        {
          "attributes": {
            "NORMAL": 15,
            "POSITION": 14,
            "TANGENT": 16,
            "TEXCOORD_0": 17,
            "TEXCOORD_1": 18,
            "TEXCOORD_2": 19
          },
          "indices": 20,
          "material": 0,
          "mode": 4
        }
      ]
    },
    {
      "name": "Blenderesse_Cottage_Generator_Baked_MergedBake_Baked_0",
      "primitives": [
        {
          "attributes": {
            "NORMAL": 22,
            "POSITION": 21,
            "TANGENT": 23,
            "TEXCOORD_0": 24,
            "TEXCOORD_1": 25,
            "TEXCOORD_2": 26
          },
          "indices": 27,
          "material": 0,
          "mode": 4
        }
      ]
    },
    {
      "name": "Blenderesse_Cottage_Generator_Baked_MergedBake_Baked_0",
      "primitives": [
        {
          "attributes": {
            "NORMAL": 29,
            "POSITION": 28,
            "TANGENT": 30,
            "TEXCOORD_0": 31,
            "TEXCOORD_1": 32,
            "TEXCOORD_2": 33
          },
          "indices": 34,
          "material": 0,
          "mode": 4
        }
      ]
    },
    {
      "name": "Blenderesse_Cottage_Generator_Baked_MergedBake_Baked_0",
      "primitives": [
        {
          "attributes": {
            "NORMAL": 36,
            "POSITION": 35,
            "TANGENT": 37,
            "TEXCOORD_0": 38,
            "TEXCOORD_1": 39,
            "TEXCOORD_2": 40
          },
          "indices": 41,
          "material": 0,
          "mode": 4
        }
      ]
    }
  ],
  "nodes": [
    {
      "children": [
        1
      ],
      "matrix": [
        1.0,
        0.0,
        0.0,
        0.0,
        0.0,
        2.220446049250313e-16,
        -1.0,
        0.0,
        0.0,
        1.0,
        2.220446049250313e-16,
        0.0,
        0.0,
        0.0,
        0.0,
        1.0
      ],
      "name": "Sketchfab_model"
    },
    {
      "children": [
        2
      ],
      "matrix": [
        0.009999999776482582,
        0.0,
        0.0,
        0.0,
        0.0,
        0.0,
        0.009999999776482582,
        0.0,
        0.0,
        -0.009999999776482582,
        0.0,
        0.0,
        0.0,
        0.0,
        0.0,
        1.0
      ],
      "name": "403beeb698be420b9dc2205078a35cde.fbx"
    },
    {
      "children": [
        3
      ],
      "name": "RootNode"
    },
    {
      "children": [
        4,
        5,
        6,
        7,
        8,
        9
      ],
      "name": "Blenderesse_Cottage_Generator_Baked"
    },
    {
      "mesh": 0,
      "name": "Blenderesse_Cottage_Generator_Baked_MergedBake_Baked_0"
    },
    {
      "mesh": 1,
      "name": "Blenderesse_Cottage_Generator_Baked_MergedBake_Baked_0"
    },
    {
      "mesh": 2,
      "name": "Blenderesse_Cottage_Generator_Baked_MergedBake_Baked_0"
    },
    {
      "mesh": 3,
      "name": "Blenderesse_Cottage_Generator_Baked_MergedBake_Baked_0"
    },
    {
      "mesh": 4,
      "name": "Blenderesse_Cottage_Generator_Baked_MergedBake_Baked_0"
    },
    {
      "mesh": 5,
      "name": "Blenderesse_Cottage_Generator_Baked_MergedBake_Baked_0"
    }
  ],
  "samplers": [
    {
      "magFilter": 9729,
      "minFilter": 9987,
      "wrapS": 10497,
      "wrapT": 10497
    }
  ],
  "scene": 0,
  "scenes": [
    {
      "name": "Sketchfab_Scene",
      "nodes": [
        0
      ]
    }
  ],
  "textures": [
    {
      "sampler": 0,
      "source": 0
    },
    {
      "sampler": 0,
      "source": 1
    },
    {
      "sampler": 0,
      "source": 2
    }
  ]
}
